HIERARCHY
ROOT joint_Root
{
	OFFSET 0.0 0.0 0.0
	CHANNELS 6 Xposition Yposition Zposition Zrotation Xrotation Yrotation 
	JOINT Hips
	{
		OFFSET -17.1583 93.1646 452.98
		CHANNELS 6 Xposition Yposition Zposition Zrotation Xrotation Yrotation 
		JOINT Spine
		{
			OFFSET 15.7357 0.0 0.0
			CHANNELS 6 Xposition Yposition Zposition Zrotation Xrotation Yrotation 
			JOINT Chest
			{
				OFFSET 8.98455 -0.406207 0.0
				CHANNELS 6 Xposition Yposition Zposition Zrotation Xrotation Yrotation 
				JOINT Neck
				{
					OFFSET 16.3773 0.0 0.0
					CHANNELS 6 Xposition Yposition Zposition Zrotation Xrotation Yrotation 
					JOINT Head
					{
						OFFSET 6.45672 0.0 0.0
						CHANNELS 6 Xposition Yposition Zposition Zrotation Xrotation Yrotation 
						End Site
						{
							OFFSET 0.0 0.0 0.0
						}
					}
				}
				JOINT Shoulder_L
				{
					OFFSET 12.9942 -0.242716 4.98039
					CHANNELS 6 Xposition Yposition Zposition Zrotation Xrotation Yrotation 
					JOINT UpperArm_L
					{
						OFFSET 5.34809 0.0 0.0
						CHANNELS 6 Xposition Yposition Zposition Zrotation Xrotation Yrotation 
						JOINT LowerArm_L
						{
							OFFSET 24.3286 1.87007e-05 0.0
							CHANNELS 6 Xposition Yposition Zposition Zrotation Xrotation Yrotation 
							JOINT Hand_L
							{
								OFFSET 22.2916 0.0 0.0
								CHANNELS 6 Xposition Yposition Zposition Zrotation Xrotation Yrotation 
								End Site
								{
									OFFSET 0.0 0.0 0.0
								}
							}
						}
					}
				}
				JOINT Shoulder_R
				{
					OFFSET 12.9945 -0.242716 -4.98039
					CHANNELS 6 Xposition Yposition Zposition Zrotation Xrotation Yrotation 
					JOINT UpperArm_R
					{
						OFFSET -5.34813 0.0 0.0
						CHANNELS 6 Xposition Yposition Zposition Zrotation Xrotation Yrotation 
						JOINT LowerArm_R
						{
							OFFSET -24.3289 0.000322201 0.0
							CHANNELS 6 Xposition Yposition Zposition Zrotation Xrotation Yrotation 
							JOINT Hand_R
							{
								OFFSET -22.2915 -0.000108084 0.0
								CHANNELS 6 Xposition Yposition Zposition Zrotation Xrotation Yrotation 
								End Site
								{
									OFFSET 0.0 0.0 0.0
								}
							}
						}
					}
				}
			}
		}
		JOINT UpperLeg_L
		{
			OFFSET -2.19248 -6.46944 0.0
			CHANNELS 6 Xposition Yposition Zposition Zrotation Xrotation Yrotation 
			JOINT LowerLeg_L
			{
				OFFSET 39.0811 0.0 -1.23785e-05
				CHANNELS 6 Xposition Yposition Zposition Zrotation Xrotation Yrotation 
				JOINT Foot_L
				{
					OFFSET 40.9854 0.0 -1.26872e-05
					CHANNELS 6 Xposition Yposition Zposition Zrotation Xrotation Yrotation 
					JOINT Toes_L
					{
						OFFSET 11.7543 0.0 0.0
						CHANNELS 6 Xposition Yposition Zposition Zrotation Xrotation Yrotation 
						End Site
						{
							OFFSET 0.0 0.0 0.0
						}
					}
				}
			}
		}
		JOINT UpperLeg_R
		{
			OFFSET -2.19251 6.46944 0.0
			CHANNELS 6 Xposition Yposition Zposition Zrotation Xrotation Yrotation 
			JOINT LowerLeg_R
			{
				OFFSET -39.0811 -0.00228153 -0.0401928
				CHANNELS 6 Xposition Yposition Zposition Zrotation Xrotation Yrotation 
				JOINT Foot_R
				{
					OFFSET -40.9854 0.0 0.0
					CHANNELS 6 Xposition Yposition Zposition Zrotation Xrotation Yrotation 
					JOINT Toes_R
					{
						OFFSET -11.7543 0.0 0.0
						CHANNELS 6 Xposition Yposition Zposition Zrotation Xrotation Yrotation 
						End Site
						{
							OFFSET 0.0 0.0 0.0
						}
					}
				}
			}
		}
	}
}
MOTION
Frames:	5
Frame Time:	0.0333333
0.000000 0.000000 0.000000 0.000000 0.000000 -0.000000 0.249162 82.825000 -42.282500 79.554300 -1.458910 -7.871130 15.735700 0.000005 -0.000001 92.570300 81.358200 -87.456500 8.984550 -0.406207 -0.000000 9.483490 0.848116 10.149300 16.377300 -0.000001 -0.000001 -8.379120 4.514060 -1.638040 6.456720 -0.000001 -0.000000 -17.091200 5.773890 -3.469140 12.994200 -0.242716 4.980390 -93.459800 10.442700 -71.553200 5.348090 -0.000007 -0.000001 -65.350100 5.518750 2.156010 24.328600 0.000019 0.000005 17.394100 34.990900 -28.649300 22.291600 -0.000001 0.000005 0.043120 4.872690 9.918630 12.994500 -0.242716 -4.980390 88.573600 4.895830 -73.735100 -5.348130 -0.000001 -0.000004 -53.911000 -3.363330 -4.863150 -24.328900 0.000322 -0.000009 2.430240 8.810180 -15.607300 -22.291500 -0.000108 -0.000004 -0.615425 5.312390 -0.256605 -2.192480 -6.469440 -0.000000 -166.076000 -3.909540 -33.880900 39.081100 -0.000007 -0.000012 0.254817 0.141707 119.076000 40.985400 -0.000006 -0.000013 -8.556010 1.511770 -30.947500 11.754300 -0.000000 0.000003 0.002474 0.077627 -13.428500 -2.192510 6.469440 -0.000001 -162.981000 2.728270 148.744000 -39.081100 -0.002282 -0.040193 0.003880 -0.000429 57.166200 -40.985400 0.000008 0.000006 -1.233020 -3.295120 -88.340400 -11.754300 -0.000006 -0.000006 -0.002992 0.208178 -8.126020
0.000000 0.000000 0.000000 0.000000 0.000000 -0.000000 0.065597 83.052000 -32.123400 81.694900 -0.518789 -7.935070 15.735700 0.000005 -0.000001 94.642200 81.384300 -90.373500 8.984550 -0.406207 -0.000000 9.371220 1.446960 8.411970 16.377300 -0.000001 -0.000001 -8.967240 3.609920 -0.750884 6.456720 -0.000001 -0.000000 -16.859800 4.628390 -3.134100 12.994200 -0.242716 4.980390 -93.361200 9.907930 -71.153500 5.348090 -0.000007 -0.000001 -61.443100 -0.900752 7.345530 24.328600 0.000019 0.000005 9.202550 40.702300 -13.962800 22.291600 -0.000001 0.000005 -3.340460 4.820010 10.936800 12.994500 -0.242716 -4.980390 88.689000 4.613810 -74.118600 -5.348130 -0.000001 -0.000004 -53.432700 2.476690 -8.762670 -24.328900 0.000322 -0.000009 -1.534260 -2.365920 -32.445600 -22.291500 -0.000108 -0.000004 3.531560 5.391580 -2.636160 -2.192480 -6.469440 -0.000000 -168.692000 -1.390590 -47.440500 39.081100 -0.000007 -0.000012 -0.070496 -0.047192 123.811000 40.985400 -0.000006 -0.000013 -6.474770 3.733190 -39.348000 11.754300 -0.000000 0.000003 0.002417 0.069751 -13.747800 -2.192510 6.469440 -0.000001 -166.112000 5.194500 157.938000 -39.081100 -0.002282 -0.040193 -0.021888 0.018320 53.896200 -40.985400 0.000008 0.000006 -2.552510 -0.538490 -92.029400 -11.754300 -0.000006 -0.000006 -0.000097 0.169290 -9.706920
0.000000 0.000000 0.000000 0.000000 0.000000 -0.000000 0.576420 85.099300 -21.493700 85.620100 -1.742200 -10.606200 15.735700 0.000005 -0.000001 101.280000 82.367700 -98.894800 8.984550 -0.406207 -0.000000 7.153600 2.962430 4.580620 16.377300 -0.000001 -0.000001 -8.719170 2.376190 0.244172 6.456720 -0.000001 -0.000000 -16.960900 2.635710 -2.344280 12.994200 -0.242716 4.980390 -93.307400 9.308430 -70.339100 5.348090 -0.000007 -0.000001 -53.384100 -7.917130 12.919800 24.328600 0.000019 0.000005 3.253600 47.707500 -4.396540 22.291600 -0.000001 0.000005 -8.087130 4.760780 12.065500 12.994500 -0.242716 -4.980390 88.935700 3.851200 -74.540000 -5.348130 -0.000001 -0.000004 -53.233400 5.338800 -10.520300 -24.328900 0.000322 -0.000009 -8.922040 -7.492550 -50.256200 -22.291500 -0.000108 -0.000004 6.395940 5.444190 -4.427920 -2.192480 -6.469440 -0.000000 -174.650000 -0.848925 -57.737900 39.081100 -0.000007 -0.000012 -0.213611 -0.120708 119.473000 40.985400 -0.000006 -0.000013 -5.289330 0.998375 -50.491600 11.754300 -0.000000 0.000003 0.002452 0.073780 -13.584400 -2.192510 6.469440 -0.000001 -172.395000 6.785680 166.465000 -39.081100 -0.002282 -0.040193 -0.066666 0.068954 45.402100 -40.985400 0.000008 0.000006 -4.323330 3.889710 -86.590400 -11.754300 -0.000006 -0.000006 0.001495 0.030843 -15.322000
0.000000 0.000000 0.000000 0.000000 0.000000 -0.000000 1.488230 88.099800 -10.372500 90.242500 -4.762800 -13.587900 15.735700 0.000005 -0.000001 112.911000 83.252500 -112.964000 8.984550 -0.406207 -0.000000 4.682640 5.245560 -0.320242 16.377300 -0.000001 -0.000001 -8.631820 1.303840 0.975107 6.456720 -0.000001 -0.000000 -16.189700 0.169706 -1.825760 12.994200 -0.242716 4.980390 -92.819300 7.674220 -69.757100 5.348090 -0.000007 -0.000001 -46.085700 -9.266550 18.539800 24.328600 0.000019 0.000005 0.407445 46.791900 -0.558539 22.291600 -0.000001 0.000005 -7.418670 4.496500 16.620300 12.994500 -0.242716 -4.980390 89.399800 2.298680 -75.367600 -5.348130 -0.000001 -0.000004 -55.813000 4.994920 -11.109000 -24.328900 0.000322 -0.000009 -11.235100 -5.731380 -63.308000 -22.291500 -0.000108 -0.000004 6.234300 5.548930 -8.716740 -2.192480 -6.469440 -0.000000 178.270000 -0.316967 -63.605300 39.081100 -0.000007 -0.000012 -0.223576 -0.073799 108.271000 40.985400 -0.000006 -0.000013 -4.011920 -2.677170 -60.578100 11.754300 -0.000000 0.000003 0.002446 0.073035 -13.614700 -2.192510 6.469440 -0.000001 179.825000 7.652330 173.999000 -39.081100 -0.002282 -0.040193 -0.046653 0.072878 34.423800 -40.985400 0.000008 0.000006 -5.687870 6.911150 -71.563800 -11.754300 -0.000006 -0.000006 -0.030665 -0.220493 -25.607800
0.000000 0.000000 0.000000 0.000000 0.000000 -0.000000 1.994420 90.975600 0.671728 93.174100 -6.340930 -16.465600 15.735700 0.000005 -0.000001 125.429000 83.988000 -127.086000 8.984550 -0.406207 -0.000000 2.151410 7.046590 -3.446860 16.377300 -0.000001 -0.000001 -8.297050 0.410836 0.852081 6.456720 -0.000001 -0.000000 -14.760000 -2.221840 -1.374200 12.994200 -0.242716 4.980390 -91.998700 5.365390 -69.532600 5.348090 -0.000007 -0.000001 -41.312700 -9.000970 23.325700 24.328600 0.000019 0.000005 0.556066 43.533700 -0.807268 22.291600 -0.000001 0.000005 -0.668634 4.248400 20.532500 12.994500 -0.242716 -4.980390 89.776400 0.894532 -75.964600 -5.348130 -0.000001 -0.000004 -58.682200 4.063450 -11.772000 -24.328900 0.000322 -0.000009 -11.454100 -4.278160 -69.785200 -22.291500 -0.000108 -0.000004 5.897760 5.620530 -12.655700 -2.192480 -6.469440 -0.000000 174.709000 1.024870 -66.750000 39.081100 -0.000007 -0.000012 -0.140176 -0.007288 92.980200 40.985400 -0.000006 -0.000013 -4.675740 -4.838690 -67.244200 11.754300 -0.000000 0.000003 0.002469 0.076641 -13.468500 -2.192510 6.469440 -0.000001 175.288000 8.693280 179.308000 -39.081100 -0.002282 -0.040193 0.008393 -0.011328 24.149200 -40.985400 0.000008 0.000006 -3.007730 6.892960 -50.621700 -11.754300 -0.000006 -0.000006 -0.062550 -0.339975 -30.622600
